<mxfile host="app.diagrams.net" modified="2022-08-27T02:39:46.533Z" agent="5.0 (Windows NT 10.0; Win64; x64) AppleWebKit/537.36 (KHTML, like Gecko) Chrome/104.0.0.0 Safari/537.36" etag="F6W7lKJxnZeowU69ZOub" version="20.2.3" type="github">
  <diagram id="QSETQVmpx3WGVRR-tNqh" name="第 1 页">
    <mxGraphModel dx="2062" dy="1122" grid="1" gridSize="10" guides="1" tooltips="1" connect="1" arrows="1" fold="1" page="1" pageScale="1" pageWidth="827" pageHeight="1169" math="0" shadow="0">
      <root>
        <mxCell id="0" />
        <mxCell id="1" parent="0" />
        <mxCell id="WDoTxk_ZDJp8dgPkdYav-12" value="" style="edgeStyle=orthogonalEdgeStyle;rounded=0;orthogonalLoop=1;jettySize=auto;html=1;" edge="1" parent="1" source="WDoTxk_ZDJp8dgPkdYav-9" target="WDoTxk_ZDJp8dgPkdYav-11">
          <mxGeometry relative="1" as="geometry" />
        </mxCell>
        <mxCell id="WDoTxk_ZDJp8dgPkdYav-32" value="请求头携带手机号&lt;br&gt;和验证码&amp;nbsp;" style="edgeLabel;html=1;align=center;verticalAlign=middle;resizable=0;points=[];" vertex="1" connectable="0" parent="WDoTxk_ZDJp8dgPkdYav-12">
          <mxGeometry x="-0.2778" y="-1" relative="1" as="geometry">
            <mxPoint as="offset" />
          </mxGeometry>
        </mxCell>
        <mxCell id="WDoTxk_ZDJp8dgPkdYav-9" value="调用短信验证接口，获取验证码，并点击确认" style="whiteSpace=wrap;html=1;fillColor=#dae8fc;strokeColor=#6c8ebf;strokeWidth=2;fillWeight=2;hachureGap=8;fillStyle=dots;sketch=1;" vertex="1" parent="1">
          <mxGeometry x="430" y="240" width="120" height="60" as="geometry" />
        </mxCell>
        <mxCell id="WDoTxk_ZDJp8dgPkdYav-19" value="" style="edgeStyle=orthogonalEdgeStyle;rounded=0;orthogonalLoop=1;jettySize=auto;html=1;" edge="1" parent="1" source="WDoTxk_ZDJp8dgPkdYav-11" target="WDoTxk_ZDJp8dgPkdYav-18">
          <mxGeometry relative="1" as="geometry" />
        </mxCell>
        <mxCell id="WDoTxk_ZDJp8dgPkdYav-11" value="调用导出接口" style="whiteSpace=wrap;html=1;fillColor=#dae8fc;strokeColor=#6c8ebf;strokeWidth=2;fillWeight=2;hachureGap=8;fillStyle=dots;sketch=1;" vertex="1" parent="1">
          <mxGeometry x="430" y="480" width="120" height="60" as="geometry" />
        </mxCell>
        <mxCell id="WDoTxk_ZDJp8dgPkdYav-21" value="" style="edgeStyle=orthogonalEdgeStyle;rounded=0;orthogonalLoop=1;jettySize=auto;html=1;" edge="1" parent="1" source="WDoTxk_ZDJp8dgPkdYav-18" target="WDoTxk_ZDJp8dgPkdYav-20">
          <mxGeometry relative="1" as="geometry" />
        </mxCell>
        <mxCell id="WDoTxk_ZDJp8dgPkdYav-27" value="是" style="edgeLabel;html=1;align=center;verticalAlign=middle;resizable=0;points=[];" vertex="1" connectable="0" parent="WDoTxk_ZDJp8dgPkdYav-21">
          <mxGeometry x="-0.2231" y="-2" relative="1" as="geometry">
            <mxPoint as="offset" />
          </mxGeometry>
        </mxCell>
        <mxCell id="WDoTxk_ZDJp8dgPkdYav-23" value="" style="edgeStyle=orthogonalEdgeStyle;rounded=0;orthogonalLoop=1;jettySize=auto;html=1;" edge="1" parent="1" source="WDoTxk_ZDJp8dgPkdYav-18" target="WDoTxk_ZDJp8dgPkdYav-22">
          <mxGeometry relative="1" as="geometry" />
        </mxCell>
        <mxCell id="WDoTxk_ZDJp8dgPkdYav-28" value="否" style="edgeLabel;html=1;align=center;verticalAlign=middle;resizable=0;points=[];" vertex="1" connectable="0" parent="WDoTxk_ZDJp8dgPkdYav-23">
          <mxGeometry x="-0.2622" y="3" relative="1" as="geometry">
            <mxPoint as="offset" />
          </mxGeometry>
        </mxCell>
        <mxCell id="WDoTxk_ZDJp8dgPkdYav-18" value="验证验证码是否有效" style="rhombus;whiteSpace=wrap;html=1;fillColor=#dae8fc;strokeColor=#6c8ebf;strokeWidth=2;fillWeight=2;hachureGap=8;fillStyle=dots;sketch=1;" vertex="1" parent="1">
          <mxGeometry x="435" y="610" width="110" height="90" as="geometry" />
        </mxCell>
        <mxCell id="WDoTxk_ZDJp8dgPkdYav-20" value="返回报表结果" style="whiteSpace=wrap;html=1;fillColor=#dae8fc;strokeColor=#6c8ebf;strokeWidth=2;fillWeight=2;hachureGap=8;fillStyle=dots;sketch=1;" vertex="1" parent="1">
          <mxGeometry x="430" y="795" width="120" height="60" as="geometry" />
        </mxCell>
        <mxCell id="WDoTxk_ZDJp8dgPkdYav-24" style="edgeStyle=orthogonalEdgeStyle;rounded=0;orthogonalLoop=1;jettySize=auto;html=1;exitX=0.5;exitY=0;exitDx=0;exitDy=0;entryX=1;entryY=0.5;entryDx=0;entryDy=0;" edge="1" parent="1" source="WDoTxk_ZDJp8dgPkdYav-22" target="WDoTxk_ZDJp8dgPkdYav-9">
          <mxGeometry relative="1" as="geometry" />
        </mxCell>
        <mxCell id="WDoTxk_ZDJp8dgPkdYav-25" value="填写手机号，获取验证码" style="edgeLabel;html=1;align=center;verticalAlign=middle;resizable=0;points=[];" vertex="1" connectable="0" parent="WDoTxk_ZDJp8dgPkdYav-24">
          <mxGeometry x="-0.0944" y="1" relative="1" as="geometry">
            <mxPoint as="offset" />
          </mxGeometry>
        </mxCell>
        <mxCell id="WDoTxk_ZDJp8dgPkdYav-22" value="返回验证码失效（1910083），重新发送验证码，弹出验证界面" style="whiteSpace=wrap;html=1;fillColor=#dae8fc;strokeColor=#6c8ebf;strokeWidth=2;fillWeight=2;hachureGap=8;fillStyle=dots;sketch=1;" vertex="1" parent="1">
          <mxGeometry x="620" y="625" width="120" height="60" as="geometry" />
        </mxCell>
        <mxCell id="WDoTxk_ZDJp8dgPkdYav-31" value="&lt;br&gt;请求头携带手机号&lt;br&gt;和验证码" style="edgeStyle=orthogonalEdgeStyle;rounded=0;orthogonalLoop=1;jettySize=auto;html=1;exitX=1;exitY=0.5;exitDx=0;exitDy=0;entryX=0;entryY=0.5;entryDx=0;entryDy=0;" edge="1" parent="1" source="WDoTxk_ZDJp8dgPkdYav-30" target="WDoTxk_ZDJp8dgPkdYav-11">
          <mxGeometry x="-0.1579" y="10" relative="1" as="geometry">
            <mxPoint as="offset" />
          </mxGeometry>
        </mxCell>
        <mxCell id="WDoTxk_ZDJp8dgPkdYav-30" value="开始导出" style="ellipse;whiteSpace=wrap;html=1;strokeWidth=2;fillWeight=2;hachureGap=8;fillColor=#f5f5f5;fillStyle=dots;sketch=1;fontColor=#333333;strokeColor=#666666;" vertex="1" parent="1">
          <mxGeometry x="120" y="480" width="120" height="60" as="geometry" />
        </mxCell>
        <mxCell id="WDoTxk_ZDJp8dgPkdYav-34" value="请求头：&lt;br&gt;ex_key（手机号）&lt;br&gt;ex_code（验证码）&lt;br&gt;request_id（请求UUID）" style="text;html=1;strokeColor=#d6b656;fillColor=#fff2cc;align=center;verticalAlign=middle;whiteSpace=wrap;rounded=0;" vertex="1" parent="1">
          <mxGeometry x="930" y="120" width="160" height="80" as="geometry" />
        </mxCell>
        <mxCell id="WDoTxk_ZDJp8dgPkdYav-35" value="因为导出默认会频繁发送验证码，所以这个需求我感觉可能会变动，我以为了兼容，后端支持了验证码的缓存，也就是在下面图中的四种导出类型中的一种类型中，验证码是可重复使用的，不用重复发送。&lt;br&gt;如果后面需求有变动，修改过期时间就好了&lt;br&gt;&lt;br&gt;因此建议前端缓存一下手机号，每次获取验证码之后就缓存当前的手机号，下次获取的时候更新手机号，然后每次导出报表都在请求头中加上这个手机号（ex_key&lt;br&gt;）&lt;br&gt;&lt;br&gt;2种模式&lt;br&gt;1、无缓存模式，前端每次导出生成一个uuid通过请求头传给后端（&lt;b&gt;request_id&lt;/b&gt;）,这个UUID在调用短信验证码的时候也要传递，而且是同一个，导出的时候也传递，也是同一个&lt;br&gt;&lt;br&gt;2、有缓存模式，请求头不需要传递UUID&lt;br&gt;&lt;br&gt;传递UUID之后自动开启无缓存模式，不传递UUID自动开启有缓存模式&lt;br&gt;&lt;br&gt;&lt;br&gt;&lt;b&gt;&lt;font color=&quot;#ff0516&quot;&gt;&lt;span style=&quot;text-align: center;&quot;&gt;ex_key（手机号） 这个请求头是公用请求头，每次导出前端都要传递&lt;/span&gt;&lt;br style=&quot;text-align: center;&quot;&gt;&lt;span style=&quot;text-align: center;&quot;&gt;ex_code（验证码）这个请求头只有在填写验证码之后点击确定按钮的时候调用导出接口才传递&lt;/span&gt;&lt;/font&gt;&lt;/b&gt;" style="text;html=1;strokeColor=#6c8ebf;fillColor=#dae8fc;align=left;verticalAlign=middle;whiteSpace=wrap;rounded=0;" vertex="1" parent="1">
          <mxGeometry x="900" y="240" width="290" height="420" as="geometry" />
        </mxCell>
        <mxCell id="WDoTxk_ZDJp8dgPkdYav-36" value="" style="shape=image;verticalLabelPosition=bottom;labelBackgroundColor=default;verticalAlign=top;aspect=fixed;imageAspect=0;image=data:image/png,iVBORw0KGgoAAAANSUhEUgAAAQQAAAD0CAYAAAB97VinAAAgAElEQVR4nOy9d3QV1fu+fc2ckt5J6L33XqVJEUFRERVBRVAUULEDimABQUEREQQEKUpVAZEmvffeeygJ6b2cfmbm/eOEIYckiH4t+b2ffa3FWpw5e/aUnLlnl2c/t6RpmoZAIBAA8n99AgKBoPggBEEgEOgIQRAIBDpCEAQCgY4QBIFAoCMEQSAQ6AhBEAgEOkIQBAKBjhAEgUCgIwRBIBDoCEEQCAQ6QhAEAoGOEASBQKAjBEEgEOgIQRAIBDpCEAQCgY4QBIFAoCMEQSAQ6AhBEAgEOkIQBAKBjhAEgUCgIwRBIBDoCEEQCAQ6xn/7gFk5udjsDiRJ+rcPLRAI/oB/XRDSMrNJy8hEkmUQHjECwT+IhCTBn/Fi+tcFQZYkZFnGaDRiMhr+7cMLBP8zaBo4XS7MJhP32iD/1wUBQNU0Av39qFqh7H9xeIHgfwKH08n56BvUqFwek/HeHnUxqCgQCHSEIAgEAh0hCAKBQEcIgkAg0BGCIBAIdIQgCAQCHSEIAoFARwiCQCDQEYIgEAh0hCAIBAIdIQgCgUBHCIJAINARgiAQCHSKtSBomobLreByue/6T1XUIutQFJX5S9cTfT3ea/vqDXtY+usW1LusFbc7nCz7dRuHT1zUt7kVhZxcK1nZFrKyc/P+WbBYbFBEVU6niwXLfif6ehwAp85dZfKMZSSnZvyJuyEQ/DOcPneVH37agMPp+m+WP98rR09e5L2xs8jKzkUD7lzSrWkgSdC+TSM+GzMEs6ng5Zw4c4XR42czZ8pIqlYqo29fu3EfKWkZ9Hmsc5HHt1rtfDVzGY8/3IHmjWoCsHPvCT6eNA+T0YAsyyBJuJwuTCYDM78cTvUq5QrUs+/wGd4e/Q3zp39A1Uplmb94LVt2HeH5p7v/pfsiEPyd7D98hskzlvFo97bFWxBycm1E34hn6IBHqVKxLModLQGj0cDcxWu5HB2LqhbeSvh1/U4qli9Fq2Z19f0lScJoNGAyGXG7FQwGWX+7y7Kkp3fz8/PB388XPz8fvb70zGycThdj3x9EeFgwEhKXomMZPeE7LDZ7geOrqsoPy36nVvWK3H9fE+ISUlm9cQ+NG9QiNj6lQMtF01TKloqkfNmov3zfBII/g5+fD/7+nt95sRYEWZYwyDJBQQGEhgWhqd5tckmWCQzww+VyF7p/ZmYO6zbto0eXNkybs4JL0TGYTEZ8fcwcPXkBu8PFK8Mno7gVVE1FUVXGvDOQmtXKs33Pcc5evEpGZjaHjp5nSfhmenRpjcFoJDvHwvbdRwkK9EeSJOIT0wqI1S3OXbzOtt1Hef+N5wgO8ufHnzaQkZnDgcOneaTfcL2Vcwun0807r/VjxGt9/7b7KBAURnxiKtv2HGP3gZNYLDa+X7S2eAuCJEkoisKK1TsIDwsu0AowyDLnLl6jVvVKhe6/fM1OsrIt9O7ZgXWb9+Mf4I+maWzddRSrzY4sy2zYeoD2bRoREhwISJjNnluyafshNu88TEZmNsdPXSQlNYM2zevRqG5Vej/SkVyrncxsC0hgMhjo3+dBypfxfqs7HC4mTluCr68PfXp1JiklnflL1vFo93Y0ql+dWfNWMf/bDygRHqLnvdM0jciI0L//ZgoEdxBzM4kFS9YTl5iKze5gwZL1xVsQVFXDbDYx5t0BNKpXDVXxbiEYDDKjxs8mNj65wL5XrsUxecZSKpQrSbUq5RjzzvMAnL1wjdibiRgMBtxuhdT0TF7o9xBdOjTz2n/Um8/xwjMP8fyr4+netRWvvfA4q37fzfHTlzCbTBgMMr0f6kBmtoUde4+RmW1h7Jfz6XZ/S3p0aQXAzAWrWLthD00a1SIkOIDhH88gKSWNd18bw5VrNzEYZRrUroK/v+8/dAcFgqJp0qAGP88dx48/bWDekrWsmD++eAuCJIHbrfD51EWEBgcWmBEwyDKnzkVTq3pFr+1ut8Knk38gNi6ZsmUivVoWy1fvoFyZKIKD/ElNz6Jc2SjmL11fQBCCgvzR0DCbjYQGBxIWGsT6zftwOtx079qKxcs3ERYcRFxCCqnpmXRq24Rf1uwkKDCAHl1asXX3Ub76dikmsxGTycjyNTv4Ydl6Bg/oRd2alTh38RoWq52lv24lJDgANFBUlVJR4bRt2cAzriEQ/IOYzSbCzSZCQwIxGAxUKBdVvAUBPK2Arve3oEqF0oUKQlZOLoqieG3fsO0gew6cpEvH5uRabPp2i9XOmk17mfDBYDZsOwDA0491Ytj7X3PxSiw1q5W/49gGZEnmwuUYflm9nfjENJo0qEGrZvVYv3m/ZwASiXJlStKiaV127DuJmjfOsXPPCdq2aki5slEcOXmB6GvxNGtUm3eG9gFAkmRycq3Mmv8rRqMBTQOXy02r5vVo1bSuEATBv4ZBlnE4nCz9dWvxFwQAPx8TgYF+BWcZDAYCA/xx3jGo6Otr5qMRL2Cx2Vm6cou+fe3GvciyTKtmdVi3eR9ut0KbFvWpVqks385dwdTP3tSnNhOS0jhy4gIZmdmsWL2d9IxsGtWrzuWrNxn7xXxycq0EBwUQFeVm76HTjP1iPrkWm97SeK5PN0qEhzB30VpcLoUhzz/KwH49CA8LBkBRFM/3U98nIjzYM8mhafj4mPVxDIHgn8Rmd3AtJpEjJy+QkprJp18uKN6CIEkSLpebJSu2EBIcWMBwQpIlrly9Sb3aVby239+2CQZZZvrclQCYjEZuxiUzfsqP9OvdleCgABRFRdNUAgP8eHNIHwa8Np5O7ZvxWPe2KIrKiLGz2Lz9EGgqT/fuyicjXsRkMuJ0ufKmKDVGT/ieqMgwls8bh6KoSJKEwSCjaZoej+ByK2iaRmCgH2GmIK/zNJkM1KhaHl9f8z92DwWCoth94BRDh0/GZrUTWSKU+dM/KP6C4Ovrw7TP36Rh3eoUCAWUJN79cDrR1+Ix5jN9Mcie5raGxxjG7nDy4cS5hIUG8+yTD5BrseF0urDbXaRlZNGmeV2eeKQjH342h4Z1qlK5Ymn6P9mN/k8+wNjJC6hRtTxuRaHnMyNISErDz8eMW1HIyrEgIfHzr1uQZBmr1Uaj+jX5ccZoAu4YKFTvmDKVZYnsHCvf/fAbwUH+epmIiBC6d26Fj9n0t99PgSA/NaqWZ+r417lw6QZLVm6hSYPqxVMQvpmznB+WrsflVkhLy2ToO1/i7++D3eHSWwkmkxGjwcDN+GQsVjutuw0mJDiQbz57kzo1PdOQEp7gpXlL1rPv0Gk+eW8QzwwZS0ZmNrm5NhRFpX3P1wjw8+WdV/ty8Mg5Jny9kDlTRtC1YzNyc23Ikozd4SQkKIDPRg/BrSjMWrCK6OtxlIyKQAJS0rLodn9zej3UAV9fM36+PkVfXB6SJGOx2ln0y0ZMJiOapuFWFGpVr0Sndk2FIAj+cSqVL0Wl8qVITctEVVVsdkfxFIRG9aoj93sIP18fNGDlmp2cuXCV1158nKCgAGSDzJoNe9h78DRPPdqJJg1r5EUYynofHTwtBE3ztBiGvfQEj3S7D39fM4qqMW/xWnIsNl4d+Dgmk0yblg0ICwkiJS1T39/t9oxNaJpHWO5rWZ9Fv2zi9LmrfDvpbb5fuIYypUvQsG41Pp+6iEd7tKdpw5r3dI2KohAZEcqy78cSGRFyqxeCwSAXaF0IBP8kegyMqhVPQWjfuiHtWzfkzIVrzJi3knOXrtGz230MGfgYwUEBAFSuUBpV1diy8zAut5vXBvWmSYMaBepyu90M6Psg4aEeoej5YFsAtu0+SkpaJk882lEv+8D9zb13liQUVUWWJGLikvlk0lw2bDvEuPcH0aFNI76duxKn00W/3l25dCWWp178kBf6PcTbr/QhIp8wFYUsS4QGB+rXJBD8F7gVFU3TUBS1eApCcmomwz/+lu17jlGxXCkmffQKj/fsgNFwe5zggY7NaduyPjv2HOerWT/Rvc+7vDW0D++9/oxeRlFUnC63ZxHSHTgcLhxOF4qq6mMO+fn5t+0sWbGJ6Gs3qVShFJejY7lwOYZFMz/k/raNUVUVp9OF0+lpRXw4fCDlykSx8JcNDOjbXRcERVEKDa1WVc+5FRXyLBD80yQkp/H514vYvucYpUuWQJKl4ikIPmYT5ctEMfGjV+jRpRUhRbxB/f186dG1Ne3bNOLHnzdSsVxJr+8rly9Fq2b1vITkFg3qViUr21JgBeUtSkaGUaViWR7r3o4HOjbHaDSyZskkwkM9MwWSJNGpXdO8kGfP237Qcw/T6+H2Xq2DmtUrkpqRhSx7H6lcmSg63NdYTDEK/jOCAwOILBFGr4c60KtHO0KDA5G0P2Me/zdw/WYCKRmZhIcEC/dngeAf5Jb7c93qlYX7s0Ag+PMIQRAIBDpCEAQCgY4QBIFAoCMEQSAQ6AhBEAgEOkIQBAKBjhAEgUCgIwRBIBDoCEEQCAQ6QhAEAoGOEASBQKDznwlCUasMBQLB38OtFbaFLf8viv9k7a0E2J0uklLT/4vDCwT/E7gVBTRISk0vNOdHYfw3giBJuBU3mTm5/8XhBYL/CTRNQ0MjO9eiGxj/Ef+JIKiaRqCfH1VEPgSB4B/D5XJx9sp1qlcsh6GQJEGF8Z+NIfyrWVkEgv9Bbjmd3el4djfELINAINARgiAQCHSEIAgEAh0hCAKBQEcIgkAg0BGCIBAIdIQgCAQCnf89QdDyQjoFAkEBiq2PmNutcC0mwePAfJe4Cg0IDgqgbOlI7iU689d1O1m/9QDTPnsLX1/zPZ3Lxu2HWLV+Nx+PGEjJyHB9+6Xom3z4+fd8+sFLVKv056IuVVXF4fT4S2Zl5XIpOpaDx86Tk2vh/TeeIzTEYxGXnWPFZnfc07WBx6na19dcpP3dLWbO/5XEpHRGvzMAk+mPo9jmLVnPzfgUPnz3ecDjv5mTa8F7mZrnDxUQ4E+pyLA/rPOdD6fTskkdnnqs0x+WFfw7FFtByMjK4ckXR5OSkonRaChcFCSw25106dCc+dNHYTZ5X872vce5cvUm/fs8iI/ZBMD1m4kcOnoOVb1tsnrkxEX2HjrNS889jL+ftxW7qqosW7GFi1didAdp/Rwzs9my8zDDh/UrcGqqqrJy3S4Sk9PRNA2DwUC7lg04efYy+w6fwWKxk5VtITM7hxuxiRiNBmpWq0jNquWxO5x6PROnLWbF2p2YjUby3wRJkpBlGUVVPSqQh93h4rEe7Zj00dC73t8z565yLTbxrmXyc/p8NFeuxemfx01ewE+/bsXX57aoSoDd4eTBLq34YfoHgOfUtu05RszNJAyG2w1Sxe1m/eb9xMYl4XC6vP68iqLQrlVDqlUWoe3/NsVWEDQN3G6V0e8M4MlHOuIuxCXZaJAZM3EuyckZFGZRuWPPMXbsPcHTvbrogmA0GDDn/f8WR05c4PtFa3j2ia4FBCEuIZXdB05SMiqMH376HZfbjSxJtGpaD6PRiK+PuYCRK3icp6fM+pnMzFzKl43k1LloPnirP35+vmRl5VIiIpRKFUvz86ptPPHI/bz7ytMEBvojSxJ+fj56PWlpWURFhPLWkKfQ1NvX6HC6yMzKJSwsKE8sPLhVlSqVytz+7FYYP+VH4hPT9G0Gg8zh4xew2uwMHTEZo0HO0xSNqMhw3hryZAHx8zGb8TXffvjtDifd7m/J6Hf6ezZonmW2E6ct9hI0TdPYvOMQ+w+f0f8GAKqqYXc4uXg5lqzsjV5/P7vDSYnwUCEI/wHFVhAkyfPvRmwix05d8rwJ78BgMJCckoEGha7mMpk8D+wfNbeNRgN+vj6F1rFx2yFyrTYi1TC+X7gWTdO4cOk6Y4YPpGvHFnetV9M0hgx4lBef7cljz72H0+nmxWe6UL1qOdq1bIDD4WL3/lOULlWCklHhnDobzbsfTWfWl8P1h1oDKpUvRa+H2nvVffz0ZT6aOI+vPx3mJQB34nK7+XnVVqIiw6lbszKapiHLMgZZQlFVDJKE0WBAkiSir99k174TDO7fk/DQYFLTsxj+0QziE1OIT0zF4XTRudcb9O3dFV+zCX9fH2pWq+B1PKfLTVCgv/5ZliVGv/08Lpdb711ISDicLh7vP4rO7Zvyzqt9UbV8f18N/P29hVnw71BsBQFAkmRWrN3Bxu2H0IoYSFAVlQ5tGuN2K0h4RMC7DsnT5cjjVrKI/NvyN2Xzk5KWybwla2nXqiGLZn6Ij4+JzMwcWnYbTPkyUbrQFGY3fws/XzP+fmaMBhmj0cDpC1d5auBo1i79glrVK6Jpmt59WbdlP+kZOYQEe/f/1ULEMDvHyqUrMVht9iKPnf8evNz/Efo+3kXf9tYHU7kem8TML9/VWzhrNu5lxMczdGE0m4w0rl+dSuVLsmv/KbJycrmvRX0qlivJ8VOXuNWFyczKZersX7h2I54tOw7z8cgX7rgHPkyfu5Iz56/q911VFJJTM9i66wixCSl6C8HtVni6VxcefqD1H16X4O+n2AqCpnn6kqPfHsDTj3e+a1mjwcDi5ZvYvvcY874Z5TXMZbXZuRx9k4AAXyQkklLScbsVLkffxM/PB1mWuBmfUqDLoSgqn07+gehrcUz59HV8fDzN3fOXY7DZHVSpfPut/Mtv26lRtbxXk/j2dWhomufRUVSVBnWqUrVyOVau28mYdwcCYJBlHE4XW3YeoW2rBkSEh3jVIUkSNpuD67GJqHlv+CvXYpEkiL4Rj8FoQNM0JCTMZiOVK5QppBvzx6OSd5YIDgrg9ZefAOC9cd9x5VocY98fBMBPq7YS6O9pCQQH++Pv54u/ny/jR7/sJTzgEdzIiBDKlCqBMU98FUXFaDQQEOBH6ajbA7VuVS0giIJ/j2IrCEaDjMloZN3mfQT4+0IhbQQJCUkCq83BjHm/Eh4W7PWjNpmMXLkWx3OvjEOWJSRJIjvbgt3h5JmhY/VtmVk5ntmDvDejqmrMWbiaH3/6nQF9H6Js6Ui9zu17j1EiIoQqFcsSczMJk8nIvMVriUtI4fMPhxAZEVrkNamqio/ZROd2Tdmx7ziZWTkYZAmTyci5C9eIvnaTCaMHF9jPYJC5eCWWNz+YitPlxmCQycq2kJNr5dPJP+BrNqOhYbM78fc1s+GXr/Lu2W3iElK4cvWm3r3KzLZgtdo5f+kGZrMRSZKIjU8u8tw1VcVg8AxipqVnYTQaSUhO49Cx88iyTNeOzTHIMqqqEn0tjjo1KyFJErkWG4nJ6XTr1JIeXTxvfUmScDpd7Nx3guaNazPspSe8BNnpdHM9NpHyZSLveR2/4O+h2ApCSHAgQwf2Yt6SdYyf8mOh4wBqvkG2iPAQ3nvzOa/v+z/1IM0a1UJVVTTN80Ncs3EP23cdY9z7g/DJGyGXJInw0CDCQ4MAz4DdkhVbePiB++jSoRkP9xvBKy/04pEH27Jmw16aN6pFRFgw127Eo2kaH498kQVL1/HEgNFMn/gW9etULfSaVFXDZnPw2MPtaVC3GhaLHbdbIddiIzwsmK/GDaNmtfLY7U59StTpdCLLMtWqlOXr8a/rLYT5S9ezZ/9Jvhr7GoEB/kgSrN96gLkL13jNOgAEBQUwZ+FqFi/f5BlDkCQys3NxuxX6Df4ETy9KwmqzExYSVOi9lmSJy9ExPDlwDHVrVyY40J9V63exe/8JFEUlOCgADY2cHCsVypVk/4bvMBoNHDhyjnc+nI7Z7PmpybKEoqie6VSbnSUrNrNpx+Hbx5EkVEUlKiqMRTPGEB4WXPBkBP8YxVYQDAaZwc8/wkv9exY6gwDw9ayfCfDz46X+PQuMAyQkpXHw2Dl6PnCf13dXrsZy4PBZenRp7bX95Llotu4+Rud2TfDzNTPl02GULlWC8NAgrsf2ZOp3v7BkxWauxyYwfvTLwK2ZEIX7Wtanc/umPDP4E3oP/IA1iydRo2r5AteTmpbFkHe/5OqNeHx9fbBYbMTGJbLwpw1s3HYQo8HAxGlL6NS2CZ+N8bQUci12SpeKIDDAj0b1q+v1qYpK2dIlaNe6ob7t3KUbXmMjAD5mE5PHDiM1LYuI8GDcbgWXy80nX8yjZGQ4r73UG4m80QAN/Px8CA/zdFnsdie7Dpxk38HTbN5xmKTkdOrVqsJjPdozd9FaevfsSJVKZVm5ZjuLZ31MUKA/I8fNJC0tUz+PJg2q892U4ciSjMlowOVWGDNhDlarnbHvDWLitEU82LkVvXq0Q9U03G6F9MxsypaKJCQ48B5+KYK/k2IpCDPmr+LgkbMYTQZkWUZC8h6FxtPf3b7nGIEB/hw9dRFVU5FlmWEv9qZB3aqcOH2ZN0dNpUn9mlQoF6Xv53YraJqGw+H0Gsn+fuEarsck0LldEwCaNqypf/fqC49TqXxpnhn8MT26tqFtywZe52J3OKldvSI/zhjD9O+XExIcUEDEtLyH7ZHubUlLz8ZgkLBaHXy/aA01qpanR9fWKIqKW1GoWtEz3aaqGsmpGdSpWcmrruwcKweOnOGBTi29tudarAQE+iPnEzpZlolPTOXrmcuY9PGrdGjTkPSMbHJyrfTu2ZGObRoV+Xe4FpvA26OnERYSiKpqtGhWlx++/QBJkpjpchESFMBDXVqx8KcNJKekU6F8SY4cv8BLzz6s1xEeFkyrsDoAJCalM/bL+SQkpjB94lt0ateU0+evsvfASUa/3R+DLPPB+Nlcio5l8awPixzsFfxzFEtBkCTP6LzBaETNe0gC/Hy9YhEkIDDQH7PJhI/ZhKppGGTZazDNIMv3HOEnQaHxBABWu4Offt1KRFgow1/tWyAA6hbVKpfl6/FvAHim2QCz2aSfQ1CgH70f7qCXt9kc/Lp+N/e1bMDAvj0K1Gex2khKTqNS+VJe23ftP0lsXDKPdLvPa3tOro3goIACabdbN6vL8rJR9Bv8MV9+8hqZ2blkZubQvlVD7kbFcqVYNOtDqlcpx/gpP3Ip+qY+AyHh6evXqFqB+nWqMOW7n7m/bVNyc610uK+xVz2JyeksW7mFOYvWkJqWybxpo+jUrikAQwY8ykNPD+e9sTOJS0jl+KlLfDLyxQKxIoJ/h2IpCEMHPKb//7sfVrPnwEnGvvcipUtGeJV79pVxhAYFMn3iW4XW44nmkwpsg4IPvyzLhcYhuNxuPp40j9Ub9vD1+Ndp3KDGPV+H0Whgzca9JCSlEXMzscCD6nC60DStyLUV12MTsdocVCxfUt8Wn5jKh5/NoWnDmjSo6z1WkZaRRVhIYIE3a9nSJZj3zSg+njSXdz6cjsvlonuX1jRpePdr8ffzoVG9asDtltWd3IozeOqFD9m2+xj9+zxIvdpV9O+/mb2c6d8vJzDQnxZN6nDo6DkqV7g9Q1OjannGDB/A6yOn0LhBTTYs/4qqFYuOqxD8sxT7NlnNauU5euoifV/6mMvRNwt8X9T4wq3vLFY7DqcLu8OJ0+XG6fI8hFabA7vDid3hxOF04XIXfCjjElJ5+a1JzF+0lhGvP0P/Pt3/9Plfjo5l174TpGVkeQ2CgmdcQZKkIpdqHDx6luCgAKrmrZNIS89m+EczSE3PZMTrz+Dn6+NV/lJ0LKUiIwqNizAZDdSpWRmH04nbrbBz33FGjp3J/sNn7mmxlywXfZ6lS5UgKjKM7JxcQkMCvcqVKxvJC888zOYVX/P6y0+gge4RcOpsNMvX7KDv4114sf8j3LiZyO79J0UC3v+QYtlCyE/H+xqzaNZHPDdkLCPHzWTBtFH4+JiRAIvFTnCAf6H7ybJMVo6FZ4eM9TQ/NQ1JlkhOySA9M4eH+o7wepPGxifTqkld/fPu/ad4a8w3xMWnMGb4C7z24uOFdinu9uM1mYwMe+kJ+j/dnXc/nE7JvAU/Lpcbh9NFSmomWdm5GAppmdgdTtZvPkDtGhUpXTKCzTsPM+6LBVy9Ec/XE96kQ5tG2O1OklIzkGWJ46cvc/DIWT54q79eh9PpJjE5jT0HT7Polw0cOX6BHl1bM3jAYxw6eo7Fyzex7Net1KxannatG1G9ankqlStJZEQoUZFhBAX6Y7M7cLsV0tKzufPyNU3j1LmrjJ4wm/ikVF7q/yjzFq8jOSWTd199mvJlo3j8odtdpBOnL2O12fhh2e+cv3SNi1diiSwRSo/OrZgw6mWCAvx5f9wstuw4zLBBT9CoQfVCYzsE/xzFXhAAmtSvztxp72Ox2LgUfZOPJ83DZDKw/9AZ3nvj2UL30TQNH7OJXg+1Jyw0SF8HYDDIyAbZ08f3TMojSbB8zQ4U9fabMiE5jeCgACZ//xod7jLwphTRlDYaDXw1dhhlSkVgNhn55rM39e+OnrzI598sJi0ti9S0DBrVrVZg/4zMHC5djeWj4QPJybXy9ujpBAX6sWD6B3Tp0AyAazEJDHrzcyxWO0kp6dzXvD69H+mo13Hu4jWeHTqW7Bwr97VqwHdfjaBnt/swGg20blaXQc/1ZPOOw6zfcoCtu44wf8k67HYnPj5mvvjkFZ7o2ZF5i9fx6/pdXLh0g1dffDzf/YWklAxeeH0CEhKzvxrBfS3q06V9M94ZM42YuCSWzfnY64Hec+AUFouNLbuOcH/bxgwZ0IvWLerpg7sfjxhIgzpV+fLbJbz89iTW/fQF5fLFgAj+eSTtbm3uf4DrNxNIycgkPCSYqn/BqCU2PpkZ81ahaSpVK5XliZ4dCcuLH8jPzYQUDh45x2M92t3TaPXRExfJzMmlc95gl6Zp2B0u/O6yRDo5NYOfV23nyUc7ei2L/iMSk9NY9fseFEWlcd1qtGpW12tmADxBTEdOXKR2jYoEBPix5+ApalWrSFSJ24FPDoeT46cvk5VtoUR4CHVqVfLqRuTm2li/ZT8N6lajepVyd70PNrsDi9XOzbhkrsUk0KxRLcqXjeLIiYvsOXSKsiVL0K1TC4LzllWv27wfVdXw9TFRr05Vr2jDi1diycqx0LxRTa9xmdPnr5KankWzRrUICvAr8lwyMnO4cDmGlk3rFDnQK/hjHJnrJWYAACAASURBVE4n56NvULd6ZUzGe3v3/z8nCAKB4N74K4JQ7AcVBQLBv4cQBIFAoCMEQSAQ6AhBEAgEOkIQBAKBjhAEgUCgIwRBIBDo/M8JQlZ2LtdiEgrNU/hv4HYrpKZneWUm/qskJqdz42YSqqqRnplz17KapmGx2e+69uNeyMm1EhuX/KfNbtxuheSUDJx5q0D/DqxWOwmJqQXWiAj+OsU2dNlmc7B87Q6ysy13fXglSaJalfI80LFZgdWEgCfDUL5ouaUrt7Bk+WY2/DzZKx+CqmpeUXEWq53jZy7jdLoKXQXpdQ541i3Uq1XlD/MBXo9J4OF+Ixj5xrOFLnn+M3wxfQnJqRmMe/8l+rz4IUNfeJwBTz9YaNmT56IZ9t7XfDvxbRrUqeL1ndutEBufzJVrcZy/dJ1mDWvSpkX9QusZN3kBx05e4tcfJ3hlV/4jzl64xpDhk5k+8U2aNqhJYnI6m7Ydwu50erJZoUeS4+fnS/fOLSlxR27JO1m9YQ9TZy9n26qpBRZ6Cf4axVYQcixWxn45Hz8fH0pFhRf6FpBliUvRsTSuX5P72zbGx+wtCHMWreXI8fNM+XSY7rfgdLqwWL0zFa9av5tlq7by3Zfv6ll6klMz+WTSPFJSM+8a8itJkmfFpMPFvG/ep10rT/IUt6KwY+8JLBZrvrIyORYriqqy8KcNHu8DCT3l2S3zlfvbNibAv+jQXr0+PMlSKpUvxdCBjzH+qwWEhwbxyIP3FSi78KcNZGblcOrsFeYsXI3Faicn14rFYiMn10JKaiYut4KvjxnrU91o1axegbDhdZv3s+jnTQT4+/LcK5/qrQ1JkjCbjDhdbtq1asg7r/QpcHxV86RXu9VAuXItjpFjZ1KuTBQBfj6oeIQ7O8dKUkoGdWtW0gXh2MlLfDXrJ0z5skFJksS1mATiE1IY9OZErxwVLrdCjarlGfXmcwUySAnuTrEVBJDwMZsZ884Annz0/iJLjRg7kytX4wr9Lj4hhctXb3qJSWE5EpJSM7h4OQYlXwKWcqVL8N2Xw1FVtdCl0fnru3D5hifPQL5yVquDV979EqvNTmCAn9fD4+frQ3JKBiM+/tarHqfTRWZWDoe2fE+1yuUAz8Pww0+/56U48xbFQ0fPkWOx8caoqXrm5a9mLOXC5Ru8NuhxXQSvxyaybtM+hgzsRbXKZVm/eT8BAX6UKVmCbbuPEhIcwCfvDaJcmUhqVq1AiYiCb+aN2w8xbORXlIwMo9fDHTy5Ed0qskFCVTR+/m0bN24mFlgIlpVjwWpzkJicDmgkp6STlp6FoiqUKV2CRbM+pGa18nk5L+HgsfMMeecLrwfZZDZStlQEJtPthVKyLJGZlYvRZKBsqRL4mE36ylO32014aBDqvxuV//8Liq0geIxaJH5Y9jv7j5wttNtgMMjs2HucCuVKFfoWN+Rlbv4jDLJcwM/BZDISGhrIjdgkGufLZVjUuRaW4UeSJD4aMZDnn763rsHWXUcY9MbnXtvOXbrOjz/9Tpf2zfHxMemaIMseJxubzU5aehbgWSrucHhEJb8ILlj2O2gajz/UgQrlomjV7PYy78HvfIHbrdKnCH/F7Bwrs3/4jamzf6FCuZLEJaSQlp7FB2/1JyoyjMysXD77eiEZWTl8NPwFhg3q7bX/jLkrmTr7F8wmI4qi8vJbkyhTOpL333wWg8Ggi7OGhqZqnDkXjaKoBOVb1l6/dhXGvf8SWbm3W1sGWWbRzxu5FB3D4AGPedLWAWgaRqOBsJCCC94Ef0yxFQTwPGgut5ucXGuReQeaNqxFo3rVSEhKw2KxUat6xTvqkLwe1lsuRV7bimhWrt24jykzf+Lgpjl61uDCUAuxmdMAu8NBYIAfV2/EE3uHt6HX/qpGiYgQAgP8sTucXgN/Ghrly0Qx88t3iQj3ZCC+Zbs2dfZyfli2ntlTRuJjNpFrseW5VZn08ZQtO4/w/cI1tGlezyu3pPfxix6jyc61sG7zPl4b1JuhAx9j576TfDxpLr2eH8Wj3duxZuNerDY730x4kyfyLb2+Rd/eXelwX2MuXo5h0vQlvPtqX5o1qklaRjaqourXOnP+KqZ/vxyr1UHXjs0pXco7O9a6zfv5aOJcz4e8Jes2q92Txfq595Bl2eN94VaoVaMi86a+L/wd/gLFVhBueTs++2Q3nnuq2x+WHzd5Adt2H2Pbr1O9BgGTktNY/MsmzzJmSeLgsXNYrDYW/bIJHx8TBllm574ThT4UTpeLXIsNm91RpHOUhITd4Soweu9rNjF82DM0bVibBUvXs/DnDUUupXY43XRs04jPPxrKB28/X8Co5dZxJElC09DTppeOCsfpdGG12fH38+GLb5ficrn5PC9j89UbCYz8ZAYZmdl6yvkC9UrSXQdNy5WOZN2yL/H38yHXYqNShVLUrVmZFWt2cPFKDDabnZcHPEbzJrVwOF0FEppUKl+KSuVLEeDvi8lopGnDGjSsW429h06joelmsX0e60StqhUICQ2kYd1qXuMFAPe3bUypkiPy7oWH9Zv388vq7Uz5dBiBeS0KTdMIDPQXYvAXKbaC4OtjIqpEGJOmL2HnvuNAgS60JwUZniSo2/ccp0eXVl4/7ojwEDRJYvrcFZ4RbCRyci3YbA6mzv4FSZaQ8LwhK1UsUyAngdFgINdiY+CwCZ7vCtEEWZLIyM4lN9dK/gI+PiZey0soMubdAbwx+MkiHzxN0/DzNRMcFMDbQ70H5IwGAynpWbz63leefrKmUTIyjAmjBxNZIhSn001aejZmk4k1G/bQr3cX/ThffrsEp8tN88a1UVUVi9VORr7pSVmWseS9ZeMSUr1ELSw0CFmS2HPoNOcvXefilRjOXrjGpSsxVKxQmg/efp7aNStx9OQF1m7az/LfttOkYU1qVatAtSrlqFW9Iq2b19XTuWmqhiRJ5FhsbNtzzCNkVgeTpi2hTKkSuN1KXko5WL9pH0891ola1Svicius27yfrOxcfMy3fDQ8XbTktCwURSE+KR0fc47n9yF5jnXo2HnatKhH7TtajIK7U2wFITgogEkfvcLKdTuwWu2FPkxJKZ70YSXCQxg6sBcvPPOQ1/dDnn+Uvr263P6hSzDnx9X89OtWVi+ehH8+l2UfH7PXZyDPxl2mZrUKGIx3C9mQuL9tYyrny45stdk5e+EabkXNy/58ezDzVv8+/2cNzdOEBqpXKaePsGt55UKCA/D18eHcxavsP3KGse8PokzpSHx8zMTEJXEpOhab3cEjD7bTz6FW9Yo88UgnNm4/SEJiKstWbWXspPl53SZPGafLhapqdOj5qr6fw+nirVee5sV+PZj4zWKys3OpUrEM3e5vySfvDaJpwxpM/GYx8YkpfPr+S7w9pA/b9hxn78GTXLxyg807DtOgXnVaNKmtC0JqehZ2u50hb39BYIAfH7zdHw2NM+evsmTFJpo0rElEWAhZ2Rb2HDhBk0Y1qVW9Im63m9+37Cf6ehxGoxGDLKMoCsdPXSI4OABVUfn864VUqlDa83eWJEwmA1arnVJR4UIQ/iTFUhAys3Kx2uxUqVia9954tkhXwg8/n0twUADvvtoXTdNwulw4HJ4UYCfPRjN74Wo+fW+QV0Ylfz9fZFmmRFgwPvma8D/+vJH4xFTee/0ZfZuqaQQF+uumKX+GuPhU3h4znVyLNa8/L5FrsaLl1SnlfQY8U4x5F+l2K0z66BW6dfI4S6enZ1M6KoLvvhwOEqxcu4tR42dhkGXKlY4kNCSQHXuPc/TkRVo0qU2t6rfdmF8Z2MuT+XnDHpxOFw92aknlCqV1cTXIMlNm/YTbrfDuq331UXlV1ahcoRQhwYHM/mo4uRYbZUqWwMfHhKKoOOxOtu86SsP61UlJzUQ2yHTt0IwHO7XwdLFsDvz9ffExm/jlt+0sWbGZi1diyMqx8MQj9zNsUG+SUzMJDvRnyoQ3eP29KTzfpzvPPdWNjdsPEZeQTJW8zMu+PmYmj3sNVdUwGgw4HE6+mbOcM+evMu2ztzh1LpqlK7cw44t3KBERgqKobNt9jDo1KurJaQX3TrEUhAlfL2TLjsOYzEZkWUaWpEIj42LjkvAxm9m04zCq6jEP/eLjV2nbsj4345JYvX43I1/r5yUIt1oLd9rLHzxyluuxCV6CcKt8fmu1u5FrseF2K4QEB1CxfElmTR6Ooiie/r8sMfKTmfj6mvl4+AvIssz7n87CbDIy5t2BntZCnilshbK3B//iElI8558nGFk5FswmE5IsERToT5MGNViwdD2+PmYmjBrr1ZLKP1iqqBplS5WgbKkSXue8dOUWnE53kXkjQ4MCeWX4ZGx2B+Dpdml4UtmlpGdx5vw18kKKPKLsdDHji3eoXLE0AIdPXMDPz4feD3dgxbpdDHq2JzWrVSAlLRNFVQkNCqBz+6b8tGobT/fqzIatBykdFaFPu0qSRGBeTMa1mAQ+/3oR23YfZeqEN3iwc0sa1K3KD0vX88tv23jj5SeZOGMx075fwfxpowpY1Qv+mGIpCA93a0OT+tWRZZnktEyysy3UruHpT+oDCZLErAWr8PfzoX+f7h73Y0miSt4PUZZlfMymP4wyvIXRaCgw9fhn2b73ON/M/oUfpn9AmVIlqFvAcSmXNi1aUz8vUjA0JAhfs4mGdQv3ggRPbsjK+d50mVk5hIeFIEueLkyLpnX5cdnvPPPEAzRpWNPjFWm1EXqPNmiqqt51lsE/wJc3Bj/lSUorSfj6mFi+ejvXbsQzfFg/SkVFoKoqsiRzPTaBsV/MIyvHou//6aiXMBoMnL14jdUb9+J0uW5Xnven7Ne7K7/8tp3Rn3/Pus37eOeVp/VAI1VVOX3uKstXb2fZqm0kJKbw+uCn6N3TM6NRplQJXur/CDPnr2LDtkNkZGTzxdhX6XZ/i3u6foE3xVIQ8jsKfTljGb+s3saUca/Tsa23I9CaTXsJCwrkqbsELt05pWiQPQORd8Yn3C2Z571aisUlpJCRmYOxkNiHTTsOc/V6vG58Ap7Wh6ppupgpisroCXOoXLE0L/d/BLvDxeXoGB59sB2Hjp7nZnwyy1dvp0HdqhgMMhcuxzDnx99wud36Q30tJoFXhk/muynDqVLh3gxP7qaZvj5mune+bRl37NQl9hw4RbfOLRn0zMNeZc+cv8bU4EB95gDQH2yn01VgUBg808o1qpbn1Rd7M/zj6TRtWIt+vbvmO95lnh06ltCQQD4aPpB5S9YV+Nu98uLjHDt9md+37GPOlPd5rEfbe7puQUGKpSDkp+/jXTh8/Dz9XxnHlPFv0Ovh9l5rE+5s+t9CkiTcbjfHT18mJTXDY/VmMBAbn4zD6eLIyYv45Q0iSpInVPnWW/cWcl70YFxCChXvsFO742jYHA6OnbxAifAQIsK8g2K27znOu2Om06JpHTq3b6pvzy8Gt8756MmL+hqLrbuOEJeQRvs2jdiw/SDzF6+lRvWKDB3Yi4NHz/H6+19jNBl5fXAflq7YxMNd25CcmkFsXHKhZi1wq0XgWTzg8czUcOfZ5QGgeZyeDXesC8nOsfDTr1uZ8PVCqlUux6fvv1Sg7gtXbmA2mwkPKxgUdEuY7xQFs8mIw+ki+kYcPmYT6RnZ7Nx/koe7eqzj69aqxLcT36Z541oEBwXw82/bcLsVsnMsHDp+gWW/buGZ3g/w5Sevkp6RxUcTv8dkMtCtU4si74GgaIq9IJQtVYLvJo/ghdcnsGTlZtq2qk9WtgVZloiJTaR+7cKb25IEmdm5vPzWROQ8dySJ2w/hUy+O8Sqfa7XRtX1zr23VqpTHYrXTb/BY6taqdNsl+Q5kSSI2PoUDh88wfNgzGAwGsrIt7Np/grUb97F2814a1KnG52OGer09S0eFs27TPqbNWU5AgD9x8cmcOnuFl59/BLdbYf6SdTSoW5VmjWrSpkU9Rr7+DGnp2Xw7dwVzF6+lbq0qfDd5OJUrlCYmNoGX356I0WikWaOalI66HdijaZr+JP740wbWbzmI2WREkiSOnbqIw+li4GsT0DSPiUyH+xox9IVekGfEsm33EX75bQdXr9/kuT7dGfn6M5QIDyElLZOTZ69gMhpJTs3g61k/UzoqnHKlb4+BWKw2Ll6JZf/hM1jtdr3F4FnIJLHvyFlWrN7BoWPn+OKT1zh38RpD3vmCZ5/sxltDnqJkZJguomnp2SSnZPB73H627T5KYnIa9etUxWwyEFUilPnTRjH8oxkMeHU8XTs2462hfWjeuPa9/dAEwP8DggAQGhzA7K9GoCgKV28k8Pwr4zEYPWYrb7z0ZKH7mE0malatyFfjh1EqKlw3agHwerLzQqSnzl6OxWLzqqN187pMm/g223YfxWZ3FDnboQFly0Qy88vhPNytDQBXb8Qz6tPZlAgP5v03+/N8n+4EBXovWOr7eBcuXYlh2cotyAYDiqLwQKeWdGzTCKfLjdls4uleXfSgIh+ziYzMbLbtOc4bg59iyIBH9RDdmV++y6df/cipM1cY+kIvr/EQOV9odmCgPyEhAfrnLh2bARIut2dZssvlxt/fFwmwO13MnP8ru/efpFO7Jkz7/E0vV+z0jBwmfrMYu92JoqiUiAhh5LB+BORbRZqUnMEbH3xDWnoWbVs2oEolzxiPQZYJCPBjx57jpKRlMveb93mgY3MURaVa5XJ8v2gNj3Vvp7tdASSlpuPrY6ZMqQi6dW5F57ZNqFC+lC4ykRGhfDd5OL9t2MP0Ocu5fDVOCMKf5P85XwaL1caxU5fRNI3IiFBqVC1faB/fYrWTkpZZwDm5KNLSs3C43JS5w1D2r6KqGucvXadyxTIF4hvyo6gq2dmeQThJkggJDtT79FnZFvz8fLxW8qmqSkZWLhFhwYXW53S6CqyruHojHkVRqV6l3J++jqSUdNxuhbKFOChpqkZCcjpOlydCMapEWIG/hcvlJvp6PIqiUKlCaV0scnKtxMQlExkRgo+PmZAg78jC5NRML1MaAEVRSEzOoGxp75mSwrBYbRiNxv9pKzhh1CIQCHSEUYtAIPg/IQRBIBDoCEEQCAQ6QhAEAoGOEASBQKAjBEEgEOgIQRAIBDr/c4Jw7uJ1VqzdeddMyrfIzMrNyxb810lJy+Tn37ZhtTkK1L1q/W5sdgenz19l6+6j/6fjCAR/B8U2dDkzO5d3PpxOUlI6iqoWGjas4VlHcF/LBowY1q/AysbktEyycyxUqVBaTzq6cdtB5i1ZR/dOLfW8fRmZOSSnZlK1chmvBTGTZyxjw9YDTP3sTdo0r8fM+atYu3FfkQlXJeCBzi0Z8vyj+rYLl2/wxqiptGvVEFmWOH/pBhJw8uwVPvt6IZoGG7cdIPpGAhFhIbhcbqIiQ6lY7t4iLAWCv5NiKwhOp4vdB07RsnFtmjeu5eWZcAuDQWblul0cPn4eRVUx4i0Is39cza69J1j5w3gCAzzrCIxGg9cCI4CV63Yxc8EqNv08mfB8IcHP93mQE2cu89zQccyZMpKyZSKpW6tSwSzNkoSqqqzZsJeoKO/QZ7PZhJ+vDwF+viQmp/P6qKk4nE4cDicWq51xkxdgtdpwOF0MefcLHE4XfR/vwojX+v1fbp9A8JcotoIAHjegLh2a88wTXQtd5mwwyETHJBB7M7nwKvItLb4b2h12b7eoVqUcP84YzdB3JzNrwSqWfPcRj3Qr6Ip0i/iEVD2vQla2hegb8Zy7eB1V1dh3+AxVKpfl+69HkpySwcmzV5gxdyXDX+vH5p2HuRmfzOi3n0eWZerXrlLkMQSCf5JiKwiS5FmlN2naIuYsXF2klVtsXDItm9a5q2VXflG49d/CthVGWEgQ86a+R2Z2LrFxyXzy5YIC5d2KwrBBvb1WGJ69eI1Rn84mIzMbt9vNyHGzeLhra0wmI5u2HSIw0A+b3cHCn38nMa9bNGXmT0Rfi2PNkokijbjgP6HYCoJnCb/GQ13vo3WLekWWkySJMqUiOHj0HFeu3uS5Pg8WGG/ILya3/p9/m3KH2CiKyppNe8nMykWWJCpVKE371g25HpNAoL+vxygk/3miYjaavJJ/NKhTlTlfjWDmglWsWLOdKeNep37tyoz4ZAYtm9WhX+8HGDl2Jh+8PYA1G/ficDh5uf8jPPDEW550ZQLBv8SJM1f4fct+rsckFl9BAE8G4hIRIXTt0AzQCk3BJUkSNruD98bO4tzFax5TF+mWPZgni88bo77WE4Kcu3idjMwcXh/1NSajAVmWOXnuCm6328sbcNHPG0lKySAuIYXWzerRulldKlUozfSJbxV6roqq4XK59GSsgQF+VK9ajujrN8nJtXLk+Dk6tWuMn68PG7Yd4uylG1yPSWD0Z3PIzMrB5XRz6Wosqqrecx5IgeD/yoq1Oxnx8QwkoGrlcsVXEIIC/WjZtA7fzFnO0pWbCy1za0mnzeEkLT2bd17p4/UwNW1Yk5vxKaiqijvvQZMNMprmaSG4VRVUlbo1K1OuTJSet8BsNjF7ykhUVeWTLxaQlJymZz2et2Qdazftu30SkkT3Ti156bmeBc7vxJnLnDp7FV8fH+YtXkeNahVwud082KkFfXp14b2xsxg78kV++303Tpebl5/rSY+n3y3gAiUQ/BPEJaTy8cS5lIwMZ86UEVSuWLr4CoKfrw/TPnuTE2eu4HS6KGzecfeBU5iNRlo2rUNIcCDNGt3O5uNyubmvRX16dG7ltc/M+b8yf8l65n490supyeV2Y7M58PP1QZIkwvNSt/vr2X88J3DyzBWir8bxwnMPgQYr1uzkwNGzhQrC/CXrKVMqgpxcKy888zBzF60lLCSQK1dvkpmVS06uhe8XriEuPgVNgm9mL8fXx6xPkQoE/yQ79h7nxs0kfpw+mrq1KgPFdAzh2KlLxMQlYzIZMBuNni5AIS/N/YdPExIcRPMmtUnLyGLd5v00a1SLkpFh7D10hvfGzWTl/PGUyZdhx+1WPF4LDme+hx3GTf6BmJtJLJg2yusYhb2t69SoqKduuxGbSFaOtUCZPQdPsWXnYYYM7MWMuSvp1aM9rZvXJTQ4iDPno7E73HTv3BqXy43BYAA0VFXjiZ73FzA6FQj+CWJuJuLv50u1qrcTFRVLQViyYjNbdx3FbDJizOvnu1xu74dTgsSkdIxGAzdiE1BVT1blLz95hZKRYVitNpKT04vMynwnGRk5pGdkFfm9Sc8arCHlS9leYLoy7+PqDXtp2aweTerXwOly42M20bJJHZKS0/ny26WEh4Xg5+ujX5MkScTEJfHkIx15oJN3sleB4J9AliVURfF6roqlIAx/rS+vvvC4Jyvv4TNci0mg7+OdMciy18DiWx9OIzjAn09GvoiGhoREVF5STo+X4r03vWW56PJmk4m9h85gMnqSle4+cIp+gz/xpE0/cYE2LRvcLpx3fj27taFEeKjHyj4v0zOA3eHkxs0kXnvpCWpVr6hvlyWJD8bPJj4x9U/cKYHgr1O5YhmcThcHj57Xs5cXS0EoGRmu/3/dlv1M//4X0DRGvdXfKwYgwN+X4EB/KlUoOsz3TjemWw7DZpN38s2ixMBkNHLmwlUGvfEZg559mIe6tCYw0F9Pa169SjmaNKjp5a8A0C7PbGbvodNe9UmShFGWmf3DbwQHBeh+ipIkceHyDRrWrYZA8G/QpX0z6tSuwqTpS4iICKFlk9rFUxDyM/j5R3A4XUz46gesNjsfjXjBKwuxu4gugSxL2GwOvp27khLhIXlGLTK79p0gLT2byTOX3c7IK0mcOHOZiLAQrzrcboWkpFQuXLpOvyce4Lk+DxJVIoxO+cxW8uNwuvD/wy6KxyTltUG9qV+rim6QYjQaGfnJDFxu1x/sLxD8PYSHBTPxo6F88Olshrw1icAAv+IvCEaDgbeHPIXD4SQ7x0rMzSR27z+J0Wjg6PEL9HywcNsuTdOw2Gxs3nEIs8mElteWNxmNVK1UlnWb9undDPBYoIU38XYc0vAIzhuDn+KTkS8Wavh67PQlNmw9SE6OlV37TzD8jjUImqblDWTe3qa4Fb79fiXBQf56C0GWJE6cuSIMSgX/Ku1aNuDXH8Zz4UoMCYlpxV8QbvH+G88CnhmIKbN+RpIlqlctT99eXQotH1kijKce7cLnHw0mPLRwD4P8fL9oLckp3kudTUYDEz54mVJR4UV2KWxWB3sPncYgywx6tqeXLyFAYIA/DetVx9fX0xoxGoxUrFiG/k93p1zpSF2oABb9sonQezhXgeDvJCI8hPta1Af+H/RluDVlqGnosxBFldM07Z4HFj3l7276WhRuRQGtoLEseAKgXG633j25df5+vgXNWxRFQVHUAkYrAsFf4a/4Mvw/00K4hSRJhT5MhZX7MyHAnvJ/7ZzuZioqy5KXe9Ddzt9gMOTFJAgE/w0iJE4gEOgIQRAIBDpCEAQCgY4QBIFAoCMEQSAQ6AhBEAgEOv+TgvB/CbzQNESKM8H/bym2cQiKqpKUnIGi/IGhiqbh7+9HRPi9Rfit37yfzTuP8PmYwfj4FAxFzo8n72J++ZBYsmIzG7cd5PMPh1K6ZAR3ykv+QCirzY7D8efWJhiNBgID/EQaNcF/QrEVhIzMHHo9/z5JSWl3TYusuBW6dmzBrK+Gey16Ajhw7Bw3YhPp1aO9/t3FKzFs3XUERXlJL3fm/DWOnrrIU4/e7xU0NG7yAi5fvYnJaMCUl5Px1LloTp25QmZWLqVKRiBLEk63J1eDBEz6aCiRJTxLsMd8Ppeff92q51JAkjAZDaiqWqjPhKKoNGtcmwXffkBQno+EQPBvUmwFQVU1ci02Xn/5KR7t0bZIo5YJXy8kMzO30MxGv2/ez469J+jRubUuCEajwStyEDzZjb6dt5KHu7b2EoQGdaoRGhJITq6VWfNXcV/L+jzfpztyXwmXW+HilRssXb6Zvr0foEa18miaRkC+Bzk9PZtWzesx/NW+KIpngdP8peuoWqkc8+Ca5AAAGphJREFUD3Zu6el/SJ5VlWiwcPlGTp+7ilrItQoE/wbFVhAkyRPmm2uxkZaeXbggGGVsd3gm5sdkMuLrY/7DkGSj0aDnUrzF4eMXyPr/2rvPwCjK9e/j35nZzaYXAqEEkNClNxEhIApSBaRJVUI7WADlgCAWEPyDonhAARuggBRpShGlCILS2wFCqIEEQnohfevsPC82GROyFBEVznN/XsHuZHaz2f3tPffcc105uZQJDnRVN/IykZ2Tj7+fDxqu6kzZ2fkYjAaqPFSe4CB/HA4nP/96jM7tHtXXjlcoV5rmTR4GYMfuo/ywbR91H65KXr4ZWZZQFIVWzevTrk1TDp84x+mzMXfxagnCvXHfBgK4jse/XrWF1Rt3uR0BSBLYbA7atmp8031IklTsWoPCY/yityluLoA6cyGWNRt24ePjhUGRad6kDqrqZNPWvfo2GvBk66YcOX4Wp9NJXr6Zh2tUoeMTzfVtnAX1EXb+dpwxk+fg5+dD6xYN8fH2JDrmGstWb2XmW6No16bp7edLBOEvdt8Ggqa5jqnfHPc8vbq1veW2Jg8jG378jd8OnmTe++OKFWi2WG3EJaS4JuqAjOuu0UZcQgre3p5IkkRKemaJwBnYqz19uz/BoaNRRMfGF3liRTYq7AKFhK+vNx2fbI63l6nYIYnJw8jmbfsYPWkOjzarQ1p6FplZuXTvFM7RE+fp3imcYQO73t2LJAj32H0bCIosoygy+w5HEla5PDfO94Pr8yhJEvlmC599/b2bcmkK5y9dZdCoaciKjIRERmY2ZrOVAaOmIRdcEZmanuk6S1EkSYxGA0ajga9XbeHA0Sgee8R99yhJkrgWn0LctWQ6Ptm8xPyE6nRSs3olZk19id7dHmfrroOMGDuLr1dsoVzZUqxePB1/Px99X4LwT7pvAyHA34ch/TrrH0h3H5bCiseqquLv78f0V54rNjro98yT1KxWyVV5WQMk+Hn3EfYdimTMyD76h1eSJEoHB7gtpCLJMpUqhNC6RSP3cxGSROSZSyQmp5UYZUiShM1mJzfXQnxSKkPHzCDyzGXatGxEy0fqsXn7PoaNeY8Wj9SlfZtm5OTmu206Kwh/l/s2EAwGhfEv9ePlYT31MmM3+mLpRrw9TTzXryMGg6HYacfU9EyuXkumV9fHi32Q09MzORF5kUG92hdr1BIdc43Dx8/qE4CFZEnielYOUecuu0YoNzwXRZG5GpeELLlf46UoCj/vOcKu347TrHEt/P18MZmMdHyyOS9E9GD77iN8v2UPW3ceoly5YDFKEP5R92UgLP12K8dOnsNgNOgTfiW/feGH7fvx8/UmOjbeNXknSQwf2JU6tapw7MR5Xpr4EXs2zadSaIj+czdr1DJv4Xpi4hLZ9M37xR7HZrPj5+NNo3o10DQnGq7DGaemoTk1DAYFu10l8uylEr9H4XMe+68+jHuxHx5GA6eiLjFv0TqGjX2PWjUqM3XiMHp0DsdssfLVii133EdCEP4K92UgpF3PJDU9E4PBgITrONxoMBT7sEi4vn3tdpXklAxXVWVZdrV9A5wFC4XulHaT7Ts88SiHj0VxIvKCqx+kqpKUkk6pQH+8vExoTg1JlhnYuwMmU8nSZ5qm4eVpIjU9k01b99GgTlU+nvkqFy7F8f2Pv5JT0PXJy9N005GQIPxd7stA+PcL/fR/f7XyRw4fP8P/vTGSMsGBxUYKg158l0A/XxZ88HtH5sIhd+GE443H5Pr9N9wuyyVLrm36aS9x8cnM/+DfLFj8HXVrhVG3dhid+k2gbu2qTJ04DIMi43CoTPtwCd//sIfBfTu6/Z0SUzL4efcRPlm4FoddpXnTOrR+rCG+Pl4lejoIwj/lvry4qbAeoiRJlC8XzM5fjzJ09Ezi4lOK3ef6EBffvihN07DaHagFS4Wdmqaf67c7HKiq63bV6UR1Fv92ttsdzF6wkujYeCRJYuGyTew/EklImSBGDH6axcs3s//Iac5evMKy1VvJys5h8vTPOXAkqth+lIJ5igYPV2XVwnfYsW4ui+a+TqUKZVi5djt9h73N+h/2ALeuzSgIf4f7coRQVJd2LfBf8BYRL81g/JT5LP5kMj5eJkDCarGh+Xi7/TlZlsnOzWf42Jmuob2mIUsycfHJJKdep8/Qt4oVNI2OuUaT+r93j16+djsXY+J5941/Aa4u0NcSUklNz6R3t7b4eHsSEhzIinXb2bJ9H5tWfsDlKwlMnP4ZG5bNJDjIH0WRiTobw9qNv+B0anq7OFmWaNqgNpVCy3Hkv2eJvZLE2k27OfLfc+Isg/CPuu8DASC8eX0+n/MaOTn5RF+OY/b8bwt6LJ5kXJHDi6KcTieyJNGscW0C/X0LrlyE8BYNXHMNdrvrUoKCEUZWdq7eNUnT4FpiGj06t9ZbsnVq14JPv/qOA0ejMJmMGA0G5n6xlmvxyUQM6ELF8mWYOmEo6zbv1g9rnE6N85fiWLR8s9uVlrIsYzQYuHotGU3TuBqfRLkQ0flZ+Oc8cH0ZYq4mMuuTFTg1jRphFRnSr5Pe4PXG7XbvPcHgvk+VWLDkzt6Dp8jIzKF7p1YA2B0qDodDv9jJbLFx6swlMq5nubo9FQSJv58PDetUK3bGotCq735GkiS6PvXYHf1uB4+e4WJMHEMHdMXLTZcoQfgj7qYvwwMXCIIg3Jm7CYT7clJREIR/hggEQRB0IhAEQdCJQBAEQScCQRAEnQgEQRB0IhAEQdD9zwTC5dgEzl688pc+RoklGxrkm623bNxiszvIN1tuLKPwh5nNVux2VX/clNTrmM2WP7dTXDUp4xJSsVhsf3pfd8rd0hezxYbV5r6HxbmLV7gUE+/2PuHeeiCWLt9Oanomg16YTu9ubXm4xkMAZOfkYTZb9bJrhVc/Fl5iXHghVOGbUwIUg0JQgB+KImO3O8jIzCY59TpX4pLYve8El2KvsfjjyQQHuSor5ZktdO0/gVERPRnQq53b57Z8zTbWb9nDd0tmYPIwYrc72LbrMIlJaTeUZ5Ro2rgWTRrUdLufGXOWkZSSwecfTSA7O49eEW/So2trXntpwE1fF6vNzryF63i4RhW6dvh9teS1xFTemrmQV0c9i5+vF8PGvs/cGWNpXL/GbV7pP05VnWRm5ZCSlklcQgoHjkbx24GTfDxzLHVrhenbDR0zg/p1qvPmuOdK7GPXr8f5Zu02tnz7IaUC/e75cxR+9z8RCF8u20Ryaoa+7Bjg06838N3m3a6lx5LrugKn04lBUdBwlV2TJdfFRkhgs9oJDg7g89mvUbFCGd7/ZDnrN+3GareTmppJzRqVebpDS9ey5QKyLJGYlEb+Lb6pc/PMJKVk6P83W6x8MH8FIFG9akX9eoqdu48wqG9Ht4FwNT6FtRt30b1zawyKwubt+zkXfZVZzeoD7lvTFQZgdEw8sxesYtaUF3m+X2ckCfbsP8G2nQcZNaQH2Tm5pKZlkpCcToVypdE0DT9fb3zcLMW+G8vXbmfu56txqE6SUtIJLV+a9o83L9b/AiAl7TpZ2blu99G1w2PMW7ye5Wu3M3Zk73vyvAT3HvhASE3PZM2GXXTv2Iqa1SrptyckpuHhYWTSK4ORJYljkReY/+Va5s58FT9fbz5asAofb09eHNYLSYLd+06waeterFbX0LlteBMqhZYlITmdxd9s5tuF06gcGoLdoRKflAYa5OWZkWSZ9IwskpIzsDsc+Pp4ERToh9PpxO5QUVUnsixhsdpcl0JLEgaDgQG92jOgV3tUVUVRFEa8OgvpJl0nv9+yB4vVxgsRPbDa7Kzb+AtO1ckXSzewaPlm7HY7hRViVadK+bKlmTIhgkB/Xz5571XKBAfy77fn4eVl4pmubVj9/U5UVWP82/MxW6xk5+Ty5v99gbeXiXyzlQkvD2Bw3w735O/TtFEtRo/sjerUmPXJcubOfJW2LRuhaZCUkoHD7kBRFDSnRk5uPvGJrtqUJg8jZUoHAvBQpXL06tKapd/+SP+e7QgpuF249x74QDh0/CxJyekMvOENLEkSoRVC6NK+BQCeXia+XLKBLu1b4OfrzZoNO/H18aZzu0cBcKhOtu06pP9860cb0PrRBhw4GsXXK7boF0hdjk1g4L/eISMzC3AVUZ2/aB2fL9mA3W6n61Ot+PyjCfx64CTvfPAVKanXycnNo33vVxnQsz3jXuxHYIAv8xauY9GKH1AdKgaDQsb1bJo2rMWNUtIyWbrqJ3p0bk21KqHs2X+S/0ZeoG2rxvzy2zGqh1WkVo2H9EY2TqcTXy9PvfSch9HAOxOH4eXpQYWypVn9/S6OnjjHxDEDqVollEuxCSxctpF+z7SjRtWK2O0OGt/ksOVu1KsdRr3aYSSlZPDJl2sxFLS1y8rOZcjLMzh3MRZFUbDZ7ETHXGPbzoM4nRq1a1Zm65r/6PsZ0Pspvlr5I3v2n6Bv91uX5Rfu3gMfCHv2/ZeKoSHUqla5xH1Op7Ow2LI+8We12fEruM9ZpCSbPjFYMLewYt0OrsQlERefjN1uZ+5na6hQvjS1qlUm32xh2usjqfpQeYaNeY/+vdrTvXM4H3yyvCAooFKFEAb36ciOPUeIPHOJ5/p2olb1SkRfvsYLEc+Qb7HiZfIguFQAScnpOJxOSgf5ExuXSMUKIRgUBVV18u7sJVy+msi0ySOwWm3M+M8SqletyMK5k2jf8xUiBnRhSP/Ot3yNFEXmjXHPA3DgyGn692rPhNGuuYfLVxJZuW473Tq1ol7tsFvt5q78+PNBjp+6QE5OPmazheVrtrH/0GmaNapFTm4+IwZ35+mOLRk96T/UrFaJ0SN6s2bjLn7ec7TYfqqFhVK1SgV+2XtMBMJf6IEOBFVViTp3mUb1auDn675QSiHnHRYvLZwhOH0+hlNR0cReTcRqtXEi6gLXElOpVCEERVFo0qAm9WqHYVBkqodVpFnDWoSWK0N8YirgegNXCwvFbncQey2JsSN7c+rMJTo9O56KFcpgsdooW6YUY0f25d3ZSzCZPLDabPj6eLF60XSCgwL4auUWlq/diqfJhNFg4LOvN3D0xDmWffo2QYH+OJ1O8s0WLNbiZwg8jAZkWebylQRORkYjSRKeXh6Et2hI56ceY/WGXXwwbyUGo0JCYhoZmdksWr6ZiuXKYFdVTCYjIwd3x8/3zzecvRSbwL7DkaRnZJKTk8/56KskpWRQtUoFZEmids3KNK5fAx9vTyqULU3ThrX476mLJQLB02SiacNaRJ65hN2uYjSK6lJ/hQc6EPLNVnJz8ylbLwhZvnWlodS0TLyLDKVvpvCsw4zJI7DZHQwd8x47dh9m8ivP0bZVY06fjcHhULHbHfqowlFQls1dxWTV6UTC1UHqUkw8JqORHevmcODYGabNWkzG9WxKlwrkm8/e4mJsPOPe+ARJkohPTGXWx8tp2rA2CUlpnDkfw6eLv6Nvjyfp3L4FNpsNDw8jC7/ZzJYdB9E0DU3TMBoNvPPaMBo3qMGBo1HMX7geq82OxWJl/dIZJKdksP/QKRRF4dzFWAID/KhbK4y1G3ZRuWJZAgP88PI0EdGvCxaLjRNR0djtjtv2xyzKqWn4+XjToG41Xh7Wk5eGPcO7s5cwe8Eqnn+2E0MHdiE1PYsP561wNboteN0LXz+Hm5Z2kgTlQkpx8GgUuXn5BImzDX+JBzoQrFY7ZrMd31u0Ti98H+/ae5xqYaF6IRNN0/Q+j+Cu6KrM5dh4DhyJBGDS9M9YOv9NTCZX4RKTh9HVIh70+QXFTU1Eh6qSkJhKj8GTCSkTRHpmNiP//SEJSankmy16j8fRr88hMyuHfLMVTdPw8DAwoPdTdOvYihdfm01ImSDGjnqWZzqHuyo+FXyAqlUJpVmj2q6y8JqGQVEIDPQFoGeXNnRo+whR52N5bep8LGYrj7dsRPOmdTCbrfQZ9hbPdG5N/57t6dJ/PBPHDOKpto8A4OPtRezVRCZMmU9mVm6x1+p2HKpK/YersmT+m3h5epCZlccP2/fj6eHBrHnLqVyxLM0bu/pfFPbSkIv04LxZQRs/X28sVhtmi42SJXGEe+GBDgQPowEPk+GWHaABdv56jO2/HGb6pOF6tyZZUYhLSCE6JgGTyUBevrlYKGiaxsJlmykbEoxPbj6N6tXkhfGzGTOyN7Ii8eGCVZQODiTPYmXV+u1EnY9h3+FIalRxFX05cTqaz77+nn2HI9E0jQZ1qxHRrzMR/Ttjs9uRZZm09ExORkUzd8bYgrkLjcAAPwIDfDHICu9OHsGlmHjsdgcBfj4M7lN84tThUHm6Q8ubziF4e5nw9jJRJjgAWZbRcDXA8TN4YTFbSUhMpVb1yvj5eiHLMj7ensXCtXy5YD79cDwOh/qHqkJrmoaPtycmD9fba9marWhohJQJ4vFWjXl9+meMf3kgJpMHy9Zs48jJC8QnppGTd4zX33VyKirabSjk51vw8DC4LXcv3BsPdCB4F7yB0zKySpQyd9VKhLUbf2HS9E9p3aIBA3o/pd//ZOsmTH1/MY93e4kAP1/ahDcu1vlp40972bXvOMMHdWPRN5sZ/1J/Zs5ZxrGTF1BVlbS06zjsrsrNZrONpKR0rmdm41DLARCfmEZicjqVQ0PI9Pfhg6kv8tuBk5w4fRGjQcHDw8jZC7Gs37yHcS8+i7eXJzabA9WpUjoogBrVKgK/H4bcrGeD1WrTzzAUurGk/I33A6z7YTdWq526tcOwO35faWm3O1i3eQ8tmtUhrHJ5GtSpdsd/D3eOR17ky6WbGP5cN1as3caAXu0pXSqAfYdOoTpUMq5nkZqagdVmL+ixkU5q+nW9BmZRKemuw75bjQiFP+eBDgSDQaFqlVBORUUXDL+Lv1EkSSIv30K3juFMnTi0WJ3CwX068ETLJmTn5WPyMHLgyGkOHzuDLMvk5luYOusrenZ9nMb1a2C2WvHyMrFg1jjSrmfj6WUiol8nSgX580i74Qzq04GhA7vw3ZZf9cU1Hdo2o12bJny1YgtLVv+E6nRy9sIVft5zFEWROXg0ikB/X2RJYs5na/DwMLoey2Ij/NGGd/T7e5qMvP/xcr5YuhFwFYeVZYnpb4ykS7sW+nayLBfrUfHrgZN8OG8lT3dsReXQED1QTSYjFquND+evZNqkYYRVLv+n/j5Op8a0D76iXp2qdGnfgsXLN6Np8Pb4CLKyc1my+ifatmxE04a16dDnVZo0rM17b4/iwOHT7D0cWWxfNpudk6ejCatcvkRDXeHeeaADAeCJ8CZs2PIrsVeTqFvktFnhF2rEgM5EDCg5pFYUhcqVyur/P38pTp+YU2SJ9o83Y/SIXkSdjwXNdZbCx8cLHx8vpowfAkBevsX1QVNcnaqLng4zGg0Y+f3b2eFQGRXRg1ERPfjo09Vk5+TTt8cTfLr4O14e0YdF32xi4phBPNq0zh3/7g6HkyfCm9CmZWNUp2siTkIqcQo2Jzef/HwLNruDJat+Ysp7C2lQtzpTJkQgyzIGRUFRFBZ+8wNlgveSmnadalX+fL1LSYKGdavTt8eTeJo80DQNp+bEw8NAmdKBvPbygCLbuvpsKLJMeIsGhLdoUGxfcQmpnLsYy+Bn3TfCEe6NBz4QwpvXJzDAlzUbdzGt9nD9dlmWSErOYN/hSBRZws0IVKfIMlFnL7sCAVfrtVlTXsBgUHA4bn7hUuEZiVvVqTUoin44k5mdy38WfMvS1VtZNHcSHkYjVquN55/tSHxCMsNfeY+pk4bTs3M4hjsoiulQVVo/1pAh/TvddJuzF2J5a8aXJKdkMHPOMmpUq0TEoK5MGjNIX55cKsif6a+P4Lsf9pCTk8d7U16gTq0qt33825EkibfHD8FoNBB9Bxcn3eoCsHWbf8Hfz4cnw5v86ecl3NwDHwgVypeme+dw1m3azaghPahQrrR+35nzMbzyxse33YcsyVzPynbNIWiuYXXhijq49Qe+cFRxo5zcfM5dvMrxyAsYDQZy88wMHT2D6Jh45r0/jqfaPsJPOw+iqipOzcn010dgNBp5ccJsLsfEM2nsoNs+vqZpv18B6UZqWiajX5+DwWDg20XTmfvFGrbtOkSvbm1Zv/kXPDyMKIoBSZIwGhTat30Eu80OGhyPvECT+n9+xWLRycG7eR2hYHn697t49pl2VK5Y1u02wr3xwAcCwKghz7B+026Wr9vOxNEDAQgOCuDpjq2YMmHoHZ1D33cokpXrd2AwFD+95lrReIsRgMHg9pRcRmYOk9/9nKSUdJ5/thP+ft706NKGR5vW0VcEGgwKPj5eaE4nRqOB6a8Pp36dqsXe9K5DkpKnMyVJQlGUW/5uxyMvkJqWyfLPp9KgTlWaNKzJsm+3smXHfnbsOuT6RpYkNFyNbjXNtdjLZncw6ZXB9yQQChVdZ+COYjDobe9utG7zbjKzcxg+uNs9ez6Ce/8zfRkOHo3CarPzeMtGgOsbWlVVAgPubAGLqqpkZOYQFOBXbHSQknadU2cu06p5vRJX6Kmqk0PHz/BQxbKEli9T7D6n08nFmHg8jIabTs5lZedxMeYajepWL/aYRZnNVo6fvkj1KqGULdKQRtM0DhyNolJoCJUqhLj9WZvdQXxCKmEPlXx8h6pitdhQna7jerQil4JLEr4+Xjd9TncjN8/MoeNnaFSvhn75eFHHT13Az9eLGlUrlbjvwNEoNE2j5SP17tnz+f+BaNQiCIJONGoRBOFPEYEgCIJOBIIgCDoRCIIg6EQgCIKgE4EgCIJOBIIgCDoRCILwP6pwEesfqXb1jy1d1jSt2HX4giDcW/aCUnR2u3rHncP+kZWK6ZlZ+jX6giD8dW4sHHQ7f/sIQdO0O66ALAjC3+tvHyGYLVZsdrsYHQjCfehvDwRBEO5f4iyDIAg6EQiCIOhEIAiCoBOBIAiCTgSCIAg6EQiCIOhEIAiCoBOBIAiCTgSCIAg6EQiCIOhEIAiCoBOBIAiCTgSCIAg6EQiCIOhEIAiCoBOBIAiCTgSCIAg6EQiCIOhEIAiCoBOBIAiCTgSCIAg6EQiCIOhEIAiCoBOBIAiCTgSCIAg6EQiCIOhEIAiCoBOBIAiCTgSCIAg6EQiCIOhEIAiCoBOBIAiC7v8BOF9PdKaWLYAAAAAASUVORK5CYII=;" vertex="1" parent="1">
          <mxGeometry x="900" y="675" width="260" height="244" as="geometry" />
        </mxCell>
      </root>
    </mxGraphModel>
  </diagram>
</mxfile>
